<?xml version="1.0" encoding="UTF-8" standalone="no"?>
<svg
   xmlns:dc="http://purl.org/dc/elements/1.1/"
   xmlns:cc="http://creativecommons.org/ns#"
   xmlns:rdf="http://www.w3.org/1999/02/22-rdf-syntax-ns#"
   xmlns:svg="http://www.w3.org/2000/svg"
   xmlns="http://www.w3.org/2000/svg"
   xmlns:sodipodi="http://sodipodi.sourceforge.net/DTD/sodipodi-0.dtd"
   xmlns:inkscape="http://www.inkscape.org/namespaces/inkscape"
   height="512pt"
   viewBox="0 -39 512.00029 512"
   width="512pt"
   version="1.1"
   id="svg6"
   sodipodi:docname="comedy.svg"
   inkscape:version="0.92.4 (5da689c313, 2019-01-14)">
  <metadata
     id="metadata12">
    <rdf:RDF>
      <cc:Work
         rdf:about="">
        <dc:format>image/svg+xml</dc:format>
        <dc:type
           rdf:resource="http://purl.org/dc/dcmitype/StillImage" />
      </cc:Work>
    </rdf:RDF>
  </metadata>
  <defs
     id="defs10" />
  <sodipodi:namedview
     pagecolor="#ffffff"
     bordercolor="#666666"
     borderopacity="1"
     objecttolerance="10"
     gridtolerance="10"
     guidetolerance="10"
     inkscape:pageopacity="0"
     inkscape:pageshadow="2"
     inkscape:window-width="1366"
     inkscape:window-height="745"
     id="namedview8"
     showgrid="false"
     inkscape:zoom="0.34570313"
     inkscape:cx="710.14689"
     inkscape:cy="341.33333"
     inkscape:window-x="-8"
     inkscape:window-y="-8"
     inkscape:window-maximized="1"
     inkscape:current-layer="svg6" />
  <path
     d="m 233.04535,34.710938 v 11.140624 c 15.46094,-1.046874 23.73828,0.207032 24.59766,0.347657 4.97656,0.8125 9.22656,4.027343 11.36718,8.589843 l 21.72657,46.304688 c 2.6289,0.61328 5.13281,1.91016 7.20312,3.92969 2.6211,2.55469 5.75781,4.55469 9.3125,5.42187 7.09766,1.73047 14.14063,-0.24218 19.11719,-5.08203 5.13672,-4.99219 12.97266,-6.261718 19.02734,-2.43359 8.65625,5.46875 9.58594,17.05469 2.79688,23.84375 -9.57813,9.58203 -22.31641,14.85937 -35.86719,14.85937 -0.87109,0 -1.73828,-0.0234 -2.60547,-0.0664 l 29.20703,62.2539 c 1.23438,2.625 2.40235,5.26953 3.51172,7.92578 32.88672,-10.37109 70.29297,-2.66797 96.42969,23.17188 5.84375,5.77344 6.49219,15.20312 1.03125,21.34375 -3.05078,3.42969 -7.24609,5.14453 -11.44141,5.14453 -3.91015,0 -7.82422,-1.49219 -10.80468,-4.47656 -17.71485,-17.71094 -43.14844,-23.09766 -65.57032,-16.1875 8.50391,33.90625 7.9375,68.89843 -0.83984,101.71093 4.13281,1.36719 8.33984,2.58594 12.61328,3.64844 4.96094,1.23047 10.14453,1.24219 15.10938,0.0156 76.43359,-18.90625 130.86328,-87.64453 130.86328,-167.28125 V 34.710938 c 0,-7.136719 -4.40625,-13.535157 -11.08594,-16.046876 C 477.69379,10.753906 437.01019,0 371.44379,0 305.87348,0 265.18598,10.757812 244.13129,18.667969 c -6.67969,2.507812 -11.08594,8.90625 -11.08594,16.042969 z m 168.97266,70.449222 c 5.96875,-5.968754 15.64453,-5.968754 21.61718,0 3.80469,3.80468 8.86329,5.90234 14.2461,5.90234 5.38281,0 10.44531,-2.09766 14.25,-5.90234 5.96875,-5.97266 15.64844,-5.97266 21.61719,0 5.96875,5.96875 5.96875,15.64453 0,21.61328 -9.58204,9.58203 -22.31641,14.85937 -35.86719,14.85937 -13.54688,0 -26.28516,-5.27734 -35.86719,-14.85937 -5.96484,-5.96875 -5.96484,-15.64453 0.004,-21.61328 z m 0,0"
     id="path2"
     inkscape:connector-curvature="0"
     style="fill:#009688;fill-opacity:1" />
  <path
     d="m313.425781 216.804688-61.542969-131.171876c-2.832031-6.039062-9.105468-9.675781-15.757812-9.171874-22.222656 1.679687-63.90625 9.050781-123.945312 37.21875-59.363282 27.851562-91.628907 54.871093-107.328126 70.972656-4.980468 5.109375-6.253906 12.773437-3.222656 19.234375l61.214844 130.480469c33.824219 72.09375 112.304688 111.207031 189.535156 95.855468 4.992188-.992187 9.664063-3.183594 13.617188-6.390625 61.171875-49.578125 81.253906-134.929687 47.429687-207.027343zm-123.679687-9.777344c9.503906-26.304688 38.636718-39.976563 64.941406-30.46875 7.9375 2.867187 12.046875 11.628906 9.179688 19.570312-2.867188 7.9375-11.628907 12.050782-19.570313 9.179688-10.449219-3.773438-22.023437 1.65625-25.800781 12.105468-2.25 6.226563-8.117188 10.097657-14.375 10.097657-1.726563 0-3.480469-.292969-5.195313-.914063-7.9375-2.871094-12.050781-11.632812-9.179687-19.570312zm-59.113282 51.609375c-5.0625-1.828125-10.535156-1.578125-15.410156.710937-4.871094 2.285156-8.5625 6.332032-10.390625 11.394532-2.25 6.226562-8.121093 10.097656-14.378906 10.097656-1.722656 0-3.476563-.296875-5.191406-.914063-7.941407-2.867187-12.050781-11.628906-9.183594-19.570312 4.605469-12.742188 13.894531-22.929688 26.160156-28.683594 12.269531-5.753906 26.039063-6.390625 38.78125-1.785156 7.941407 2.867187 12.050781 11.628906 9.183594 19.570312-2.871094 7.9375-11.632813 12.046875-19.570313 9.179688zm51.324219 99.914062c-10.800781 0-21.773437-1.835937-32.503906-5.714843-7.941406-2.867188-12.050781-11.628907-9.183594-19.570313 2.871094-7.9375 11.628907-12.050781 19.570313-9.179687 33.894531 12.246093 71.433594-5.367188 83.679687-39.257813 2.867188-7.941406 11.628907-12.050781 19.570313-9.183594 7.9375 2.871094 12.046875 11.632813 9.179687 19.574219-14.097656 39.011719-51.035156 63.332031-90.3125 63.332031zm0 0"
     id="path4"
     style="fill:#009688;fill-opacity:1" />
</svg>
