<?xml version="1.0" encoding="UTF-8" standalone="no"?>
<svg
   xmlns:dc="http://purl.org/dc/elements/1.1/"
   xmlns:cc="http://creativecommons.org/ns#"
   xmlns:rdf="http://www.w3.org/1999/02/22-rdf-syntax-ns#"
   xmlns:svg="http://www.w3.org/2000/svg"
   xmlns="http://www.w3.org/2000/svg"
   xmlns:xlink="http://www.w3.org/1999/xlink"
   xmlns:sodipodi="http://sodipodi.sourceforge.net/DTD/sodipodi-0.dtd"
   xmlns:inkscape="http://www.inkscape.org/namespaces/inkscape"
   id="bold_v2"
   enable-background="new 0 0 24 24"
   height="512"
   viewBox="0 0 24 24"
   width="512"
   version="1.1"
   sodipodi:docname="greed(1).svg"
   inkscape:version="0.92.4 (5da689c313, 2019-01-14)">
  <metadata
     id="metadata9">
    <rdf:RDF>
      <cc:Work
         rdf:about="">
        <dc:format>image/svg+xml</dc:format>
        <dc:type
           rdf:resource="http://purl.org/dc/dcmitype/StillImage" />
      </cc:Work>
    </rdf:RDF>
  </metadata>
  <defs
     id="defs7" />
  <sodipodi:namedview
     pagecolor="#ffffff"
     bordercolor="#666666"
     borderopacity="1"
     objecttolerance="10"
     gridtolerance="10"
     guidetolerance="10"
     inkscape:pageopacity="0"
     inkscape:pageshadow="2"
     inkscape:window-width="1366"
     inkscape:window-height="745"
     id="namedview5"
     showgrid="false"
     inkscape:zoom="0.4609375"
     inkscape:cx="-96.542373"
     inkscape:cy="256"
     inkscape:window-x="-8"
     inkscape:window-y="-8"
     inkscape:window-maximized="1"
     inkscape:current-layer="bold_v2" />
  <path
     style="fill:#009688;stroke-width:0.10169491;fill-opacity:1"
     d="m 9.9575638,23.811766 c -2.195583,-0.397544 -4.216641,-1.515837 -5.875501,-3.251034 -1.763738,-1.844902 -2.691961,-3.84319 -2.986753,-6.429916 -0.22335096,-1.95985 0.160919,-4.029548 1.093593,-5.8901387 L 2.7216368,7.1779259 2.4132738,6.4467439 C 2.1651808,5.858472 2.0956218,5.526649 2.0573858,4.7490077 c -0.0582,-1.1835895 0.08228,-1.9111699 0.549168,-2.8444316 0.420541,-0.8406124 1.312993,-1.83308174 1.648351,-1.83308174 0.345698,0 0.728675,0.4376653 0.730103,0.8343606 0.0027,0.74592284 0.382034,1.73967214 0.930593,2.43780904 l 0.293764,0.3738644 1.056315,-0.5045909 c 0.580974,-0.2775251 1.506493,-0.6256083 2.05671,-0.7735184 0.8935612,-0.240208 1.1795872,-0.2686731 2.6783612,-0.266547 1.484204,0.00211 1.793653,0.033202 2.679813,0.2692959 0.551017,0.1468038 1.455977,0.4904813 2.011024,0.763728 l 1.009176,0.4968122 0.316964,-0.3610027 c 0.453743,-0.5167849 0.801974,-1.3742064 0.889035,-2.1890036 0.07939,-0.74302794 0.308371,-1.08120754 0.732079,-1.08120754 0.267771,0 0.974303,0.6617005 1.377322,1.28992664 1.089124,1.6977292 1.193134,3.3885805 0.336925,5.4773104 -0.117921,0.2876662 -0.08993,0.3849717 0.394892,1.3728815 0.813695,1.65804 1.049234,2.5976951 1.107741,4.4192031 0.03726,1.159885 0.0087,1.740166 -0.119312,2.421559 -0.823198,4.382989 -4.210326,7.819462 -8.586099,8.711189 -1.192256,0.242966 -3.002172,0.263774 -4.1927472,0.0482 z m 3.1109832,-2.794875 c 2.649467,-0.377483 4.894296,-1.982136 6.070026,-4.338989 0.385553,-0.772874 0.406619,-0.857355 0.286248,-1.147954 -0.07146,-0.172526 -0.212172,-0.357698 -0.312688,-0.411492 -0.111903,-0.05989 -2.887869,-0.09781 -7.160166,-0.09781 H 4.9745568 l -0.249615,0.249616 c -0.314811,0.314809 -0.312997,0.576059 0.0088,1.267358 0.668473,1.436039 2.04605,2.860587 3.481721,3.600435 1.637478,0.843846 3.1615462,1.119836 4.8530832,0.878835 z M 7.4616118,13.894622 c 0.19294,-0.151767 0.267952,-0.304894 0.267952,-0.546985 0,-0.278192 0.053,-0.358168 0.307144,-0.463436 0.633462,-0.262389 1.103057,-1.175257 0.969847,-1.885331 -0.03388,-0.180607 -0.163456,-0.47801 -0.287942,-0.660898 -0.376965,-0.5538167 -0.709778,-0.7352474 -1.468239,-0.8004003 -0.51945,-0.044621 -0.690301,-0.097052 -0.690301,-0.2118399 0,-0.121814 0.201586,-0.1627851 1.000713,-0.2033901 0.941256,-0.047826 1.015274,-0.0678 1.245763,-0.3361791 0.273877,-0.3188981 0.296232,-0.4571709 0.13214,-0.817313 -0.131919,-0.2895309 -0.485173,-0.4736264 -0.908825,-0.4736264 -0.264215,0 -0.3003,-0.035773 -0.3003,-0.2977036 0,-0.2032256 -0.08824,-0.3671156 -0.278056,-0.5164228 -0.511361,-0.4022367 -1.247368,-0.033741 -1.247368,0.6245199 0,0.2111583 -0.06577,0.3238434 -0.228813,0.3920367 -0.628747,0.2629739 -0.990627,0.8611973 -0.991145,1.6384631 -6.19e-4,0.9353605 0.587895,1.6016915 1.488002,1.6847395 0.757033,0.06985 0.952295,0.126856 0.952295,0.278036 0,0.1052 -0.24435,0.148591 -1.009933,0.179342 -1.17916,0.04736 -1.430745,0.184593 -1.430745,0.780434 0,0.50288 0.327491,0.829775 0.831287,0.829775 0.349046,0 0.389052,0.02662 0.389052,0.25886 0,0.32741 0.422889,0.75809 0.744375,0.75809 0.13483,0 0.365724,-0.09485 0.513097,-0.210771 z m 9.8059232,0.145609 c 0.240881,-0.06453 0.52516,-0.499196 0.536039,-0.819619 0.0034,-0.100658 0.19791,-0.321257 0.432204,-0.490218 0.579551,-0.417943 0.803443,-0.875691 0.754307,-1.542175 -0.07222,-0.979517 -0.694266,-1.5685978 -1.751072,-1.6582594 -0.459605,-0.038994 -0.61705,-0.093003 -0.641181,-0.2199473 -0.02772,-0.1457977 0.105753,-0.1729523 0.999686,-0.2033902 0.939644,-0.031994 1.049,-0.056543 1.225927,-0.2752073 0.44322,-0.5477761 0.05053,-1.3361916 -0.66553,-1.3361916 -0.247506,0 -0.360554,-0.046328 -0.360554,-0.1477575 0,-0.3021028 -0.238667,-0.6557386 -0.521667,-0.7729612 -0.525925,-0.217845 -1.105452,0.2050992 -1.105452,0.8067708 0,0.099862 -0.168022,0.2922 -0.373384,0.4274184 -0.553185,0.3642403 -0.772434,0.7214883 -0.823936,1.3425305 -0.09038,1.0899168 0.541875,1.7970518 1.695692,1.8965078 0.5284,0.04555 0.676076,0.09505 0.70291,0.235627 0.03004,0.157377 -0.05926,0.177966 -0.77187,0.177966 -0.899847,0 -1.401498,0.132934 -1.550202,0.41079 -0.293289,0.548014 0.118207,1.216328 0.748917,1.216328 0.318063,0 0.35515,0.03151 0.415463,0.35301 0.09966,0.531232 0.486093,0.750827 1.053703,0.598778 z"
     id="path3714"
     inkscape:connector-curvature="0" />
  <path
     style="fill:#009688;stroke-width:2.16949153;opacity:0;fill-opacity:1"
     d="M 207.62034,504.98818 C 161.31356,494.33928 121.60166,471.32177 87.380272,435.29557 45.722967,391.44125 24.394283,338.06308 24.326806,277.49497 24.284025,239.09393 30.66409,212.32344 49.428769,172.16813 l 9.693255,-20.743 -5.876983,-14.20748 C 48.309875,125.28699 47.222378,118.96233 46.459006,97.751485 45.4229,68.962499 48.347644,55.07126 59.640385,35.145763 69.310618,18.083105 87.454646,0.33582299 93.588591,1.9398856 c 6.888779,1.8014561 10.837499,9.1234614 13.356859,24.7672384 2.36868,14.708131 11.62258,35.838494 20.2541,46.248207 l 5.2669,6.351942 19.18263,-8.912636 c 44.21786,-20.544497 67.80553,-25.453303 114.3362,-23.794397 38.11656,1.358928 51.70725,4.607603 88.73925,21.211947 l 24.28564,10.889145 5.07997,-6.048972 c 8.20506,-9.770171 17.62022,-31.445209 20.15412,-46.397686 3.00701,-17.7441898 6.66266,-23.6512842 14.63682,-23.6512842 8.14989,0 25.62678,18.3595742 34.82794,36.5869432 15.04661,29.807186 16.71949,58.17639 5.52623,93.716257 l -5.84999,18.57439 11.98456,27.08241 c 17.64888,39.88252 19.12278,46.63285 20.3185,93.05695 0.96779,37.57511 0.68949,41.46901 -4.36235,61.03702 -7.22102,27.97014 -16.48629,48.66306 -32.9237,73.53124 -23.13446,35.00022 -55.48798,62.68139 -95.16,81.41744 -32.88255,15.52957 -48.43958,18.79593 -93.55413,19.64267 -27.79882,0.52171 -42.80153,-0.12952 -52.0678,-2.26053 z m 100.88135,-63.94023 c 11.3356,-3.81559 27.44407,-10.94025 35.79662,-15.83254 20.63492,-12.08638 49.41698,-41.51649 61.38161,-62.76369 11.76025,-20.88422 13.30986,-29.11019 6.99585,-37.13714 l -4.69239,-5.96543 H 256.95863 105.93389 l -5.02118,4.71715 c -9.080373,8.53057 -5.463566,23.3559 11.92207,48.86871 17.16824,25.19378 45.66227,49.11824 73.57159,61.77293 24.86872,11.27602 43.89515,14.86416 74.36651,14.02463 23.57565,-0.64954 29.81133,-1.65352 47.72881,-7.68462 z M 160.36387,294.94237 c 2.46561,-2.68474 5.15404,-8.05423 5.97428,-11.9322 0.82024,-3.87797 2.31515,-7.05085 3.32201,-7.05085 3.94791,0 15.60151,-11.84553 19.8539,-20.18089 8.65927,-16.97358 1.22917,-40.48406 -15.52084,-49.11134 -4.17627,-2.15104 -13.20678,-4.59525 -20.0678,-5.43158 -6.86101,-0.83634 -12.47457,-2.35334 -12.47457,-3.37112 0,-1.01778 8.86885,-2.54431 19.70855,-3.39229 23.04219,-1.80255 32.35924,-7.15822 32.35924,-18.60085 0,-8.33794 -8.60326,-17.06447 -16.82342,-17.06447 -6.76781,0 -11.37997,-3.41643 -11.37997,-8.42967 0,-5.4105 -9.04302,-13.26525 -15.27203,-13.26525 -7.93641,0 -17.27034,7.70651 -17.27034,14.25916 0,5.33818 -3.53084,9.57112 -14.11846,16.92592 -7.72401,5.36557 -11.91544,15.94215 -11.91544,30.06723 0,22.04118 12.4125,34.51873 37.11945,37.31401 7.02837,0.79516 12.77886,2.24581 12.77886,3.22365 0,2.17485 -12.99972,4.45895 -25.56121,4.49123 -5.10951,0.013 -12.67561,1.43848 -16.81356,3.16742 -7.02247,2.93417 -7.52354,3.80112 -7.52354,13.01695 0,10.96135 5.38405,18.55138 13.15958,18.55138 6.55574,0 12.87432,3.96171 12.87432,8.0721 0,1.96924 2.12272,5.83998 4.71716,8.60164 6.21997,6.62085 16.86205,6.68592 22.87383,0.13971 z m 215.2346,-0.83495 c 2.47305,-3.14396 4.49645,-7.33392 4.49645,-9.311 0,-1.97708 4.47151,-7.94713 9.93672,-13.26674 13.89993,-13.52973 16.74852,-19.80937 15.68093,-34.56855 -1.5153,-20.9487 -13.78178,-32.19424 -39.17698,-35.91631 -5.66779,-0.8307 -10.30508,-2.25375 -10.30508,-3.16234 0,-2.40132 11.6984,-4.36384 26.01251,-4.36384 16.39575,0 23.88579,-5.3732 23.88579,-17.13522 0,-9.96246 -6.2434,-16.41285 -17.8983,-18.49165 -6.20579,-1.10689 -8.13559,-2.48039 -8.13559,-5.79039 0,-6.4025 -9.60964,-14.98952 -16.7746,-14.98952 -8.8253,0 -15.31229,5.43806 -17.88524,14.99321 -1.50856,5.60241 -4.68459,9.99961 -9.70935,13.44263 -21.68769,14.86066 -22.2623,47.44494 -1.11277,63.10213 3.02561,2.23987 12.05612,5.1587 20.06779,6.48628 8.0117,1.32758 14.56671,3.24573 14.56671,4.26257 0,1.01682 -0.73221,1.91816 -1.62712,2.00296 -0.89492,0.0848 -10.16068,0.9018 -20.59058,1.81552 -21.82443,1.91197 -27.68061,5.40585 -27.68061,16.51465 0,8.32972 7.28741,18.397 13.31704,18.397 5.98035,0 12.71686,3.9078 12.71686,7.37699 0,1.58692 2.0234,5.45766 4.49645,8.60162 3.46827,4.40919 6.40876,5.71631 12.85948,5.71631 6.45073,0 9.39121,-1.30712 12.85949,-5.71631 z"
     id="path3716"
     inkscape:connector-curvature="0"
     transform="scale(0.046875)" />
  <path
     style="opacity:0;fill:#009688;fill-opacity:1;stroke-width:2.16949153"
     d="M 207.86544,504.87274 C 162.79161,494.67477 123.4274,472.39018 89.884153,438.08206 52.714257,400.06459 32.054202,356.96011 25.306063,303.34837 19.747995,259.19139 26.943131,220.31282 49.649347,171.81059 l 9.654758,-20.6233 -4.739753,-10.83432 C 35.585069,96.969348 44.300351,46.830006 76.569255,13.757922 89.738392,0.26100441 90.418152,-0.12938745 95.23333,3.0389884 c 6.48597,4.267756 9.47567,10.7025336 12.37816,26.6417296 2.69868,14.81994 10.26343,31.42817 19.14177,42.025273 l 6.09261,7.27209 21.65842,-9.725803 c 11.91213,-5.349194 29.95673,-12.486107 40.0991,-15.859807 17.73913,-5.900644 20.09139,-6.1365 61.83051,-6.199619 l 43.38983,-0.06563 23.12706,7.985504 c 12.7199,4.392027 30.16528,11.529884 38.76751,15.861903 l 15.64045,7.876398 5.9607,-5.710723 c 8.63043,-8.26847 17.17955,-27.146793 20.7542,-45.829803 1.71115,-8.943409 4.06301,-18.03923 5.22633,-20.2129358 11.19193,-20.9123112 50.02273,26.0339008 56.51619,68.3277518 2.70622,17.626392 0.39628,36.978373 -6.95355,58.255133 -2.50678,7.25677 -4.46366,15.05325 -4.34861,17.32552 0.11498,2.27228 5.13312,15.02549 11.15131,28.34048 17.45198,38.61173 20.21181,51.78864 20.4623,97.69762 0.18571,34.05221 -0.40418,41.30393 -4.60911,56.6526 -22.67565,82.76997 -80.99655,142.51657 -163.2541,167.24498 -16.18276,4.86489 -23.22218,5.63688 -57.49153,6.30491 -28.58745,0.55727 -42.76362,-0.0788 -52.90744,-2.37382 z m 94.82419,-61.7237 c 29.17308,-8.40954 61.11054,-27.71565 79.47416,-48.04198 10.78122,-11.93353 27.0739,-37.38893 31.65485,-49.45697 4.18612,-11.02793 2.42209,-20.46134 -4.52115,-24.17724 -2.47921,-1.32682 -60.53934,-2.1237 -154.733,-2.1237 H 103.79967 l -4.647078,5.90781 c -5.779796,7.34781 -4.58491,15.98798 4.602828,33.28278 22.92289,43.14958 70.70377,78.08766 121.38397,88.75778 16.01274,3.37128 59.54155,1.04274 77.55024,-4.14848 z M 161.07489,294.4986 c 2.92881,-2.92881 5.32511,-7.62222 5.32511,-10.42981 0,-3.55165 2.84752,-7.11183 9.3594,-11.70184 17.68224,-12.46358 22.83978,-35.69135 11.67207,-52.56691 -7.81168,-11.80424 -13.62489,-15.23257 -30.59799,-18.04511 -7.86384,-1.30307 -14.29789,-3.12789 -14.29789,-4.05514 0,-0.92725 9.00453,-2.39033 20.01005,-3.25127 17.92202,-1.40202 20.63864,-2.19394 26.0339,-7.58921 3.31312,-3.31312 6.02385,-8.12659 6.02385,-10.6966 0,-5.8761 -11.25208,-17.35593 -17.01161,-17.35593 -7.2374,0 -11.19178,-2.41649 -11.19178,-6.8392 0,-6.57624 -9.67291,-14.85572 -17.35593,-14.85572 -8.27468,0 -17.35593,8.44598 -17.35593,16.1418 0,3.94877 -2.30076,7.01413 -8.1896,10.91117 -10.09474,6.68039 -15.30265,15.18554 -17.03427,27.81907 -1.61867,11.80947 2.0979,24.38921 9.57222,32.39984 5.98267,6.41195 13.20769,9.23396 29.1604,11.3897 10.15057,1.37168 16.42624,5.34723 8.85657,5.61052 -2.15855,0.0751 -12.15831,0.92234 -22.22166,1.8828 -20.23922,1.93165 -26.17756,5.89103 -26.17756,17.4539 0,7.93349 7.6642,17.40815 14.08172,17.40815 7.78001,0 11.95218,2.24237 11.95218,6.4238 0,2.08454 2.39406,6.3733 5.32013,9.5306 6.94704,7.49596 16.81571,7.66631 24.06662,0.41539 z m 213.66071,0.44377 c 2.51483,-2.68474 5.11136,-7.54503 5.77007,-10.80066 0.69076,-3.41406 5.14238,-9.15172 10.5181,-13.55672 13.04255,-10.68739 17.72826,-23.37876 14.29524,-38.71909 -4.11674,-18.39555 -15.15676,-27.37237 -37.6481,-30.61229 -5.63998,-0.81245 -10.74603,-2.27246 -11.34674,-3.24446 -1.40284,-2.26983 11.73271,-4.43606 27.08462,-4.46663 14.0137,-0.0279 20.69545,-3.82303 22.68583,-12.88517 1.91953,-8.73953 -3.79958,-19.24713 -11.3951,-20.93604 -11.91788,-2.65 -13.51986,-3.43812 -13.51986,-6.65134 0,-5.45463 -12.13748,-15.95811 -18.44068,-15.95811 -6.60295,0 -18.44067,10.60196 -18.44067,16.51562 0,2.10784 -4.78447,8.28463 -10.63216,13.72621 -15.78809,14.69162 -19.28353,30.60419 -10.52039,47.89291 5.79704,11.43693 13.81951,16.51614 31.14186,19.71658 7.03469,1.29972 13.76662,2.98062 14.95984,3.73532 2.96435,1.87496 -8.41264,4.15054 -22.30697,4.46178 -23.53424,0.52714 -33.14743,9.92132 -25.838,25.24936 3.31904,6.9601 4.80629,7.88654 16.98979,10.58339 3.77103,0.83473 6.1973,3.14466 7.10602,6.7653 3.44474,13.7249 20.35783,18.9837 29.5373,9.18404 z"
     id="path4523"
     inkscape:connector-curvature="0"
     transform="scale(0.046875)" />
  <path
     style="opacity:0;fill:none;fill-opacity:1;stroke-width:2.16949153"
     d="M 207.86544,504.87274 C 162.79161,494.67477 123.4274,472.39018 89.884153,438.08206 52.714257,400.06459 32.054202,356.96011 25.306063,303.34837 19.747995,259.19139 26.943131,220.31282 49.649347,171.81059 l 9.654758,-20.6233 -4.739753,-10.83432 C 35.585069,96.969348 44.300351,46.830006 76.569255,13.757922 89.738392,0.26100441 90.418152,-0.12938745 95.23333,3.0389884 c 6.48597,4.267756 9.47567,10.7025336 12.37816,26.6417296 2.69868,14.81994 10.26343,31.42817 19.14177,42.025273 l 6.09261,7.27209 21.65842,-9.725803 c 11.91213,-5.349194 29.95673,-12.486107 40.0991,-15.859807 17.73913,-5.900644 20.09139,-6.1365 61.83051,-6.199619 l 43.38983,-0.06563 23.12706,7.985504 c 12.7199,4.392027 30.16528,11.529884 38.76751,15.861903 l 15.64045,7.876398 5.9607,-5.710723 c 8.63043,-8.26847 17.17955,-27.146793 20.7542,-45.829803 1.71115,-8.943409 4.06301,-18.03923 5.22633,-20.2129358 11.19193,-20.9123112 50.02273,26.0339008 56.51619,68.3277518 2.70622,17.626392 0.39628,36.978373 -6.95355,58.255133 -2.50678,7.25677 -4.46366,15.05325 -4.34861,17.32552 0.11498,2.27228 5.13312,15.02549 11.15131,28.34048 17.45198,38.61173 20.21181,51.78864 20.4623,97.69762 0.18571,34.05221 -0.40418,41.30393 -4.60911,56.6526 -22.67565,82.76997 -80.99655,142.51657 -163.2541,167.24498 -16.18276,4.86489 -23.22218,5.63688 -57.49153,6.30491 -28.58745,0.55727 -42.76362,-0.0788 -52.90744,-2.37382 z m 94.82419,-61.7237 c 29.17308,-8.40954 61.11054,-27.71565 79.47416,-48.04198 10.78122,-11.93353 27.0739,-37.38893 31.65485,-49.45697 4.18612,-11.02793 2.42209,-20.46134 -4.52115,-24.17724 -2.47921,-1.32682 -60.53934,-2.1237 -154.733,-2.1237 H 103.79967 l -4.647078,5.90781 c -5.779796,7.34781 -4.58491,15.98798 4.602828,33.28278 22.92289,43.14958 70.70377,78.08766 121.38397,88.75778 16.01274,3.37128 59.54155,1.04274 77.55024,-4.14848 z M 161.07489,294.4986 c 2.92881,-2.92881 5.32511,-7.62222 5.32511,-10.42981 0,-3.55165 2.84752,-7.11183 9.3594,-11.70184 17.68224,-12.46358 22.83978,-35.69135 11.67207,-52.56691 -7.81168,-11.80424 -13.62489,-15.23257 -30.59799,-18.04511 -7.86384,-1.30307 -14.29789,-3.12789 -14.29789,-4.05514 0,-0.92725 9.00453,-2.39033 20.01005,-3.25127 17.92202,-1.40202 20.63864,-2.19394 26.0339,-7.58921 3.31312,-3.31312 6.02385,-8.12659 6.02385,-10.6966 0,-5.8761 -11.25208,-17.35593 -17.01161,-17.35593 -7.2374,0 -11.19178,-2.41649 -11.19178,-6.8392 0,-6.57624 -9.67291,-14.85572 -17.35593,-14.85572 -8.27468,0 -17.35593,8.44598 -17.35593,16.1418 0,3.94877 -2.30076,7.01413 -8.1896,10.91117 -10.09474,6.68039 -15.30265,15.18554 -17.03427,27.81907 -1.61867,11.80947 2.0979,24.38921 9.57222,32.39984 5.98267,6.41195 13.20769,9.23396 29.1604,11.3897 10.15057,1.37168 16.42624,5.34723 8.85657,5.61052 -2.15855,0.0751 -12.15831,0.92234 -22.22166,1.8828 -20.23922,1.93165 -26.17756,5.89103 -26.17756,17.4539 0,7.93349 7.6642,17.40815 14.08172,17.40815 7.78001,0 11.95218,2.24237 11.95218,6.4238 0,2.08454 2.39406,6.3733 5.32013,9.5306 6.94704,7.49596 16.81571,7.66631 24.06662,0.41539 z m 213.66071,0.44377 c 2.51483,-2.68474 5.11136,-7.54503 5.77007,-10.80066 0.69076,-3.41406 5.14238,-9.15172 10.5181,-13.55672 13.04255,-10.68739 17.72826,-23.37876 14.29524,-38.71909 -4.11674,-18.39555 -15.15676,-27.37237 -37.6481,-30.61229 -5.63998,-0.81245 -10.74603,-2.27246 -11.34674,-3.24446 -1.40284,-2.26983 11.73271,-4.43606 27.08462,-4.46663 14.0137,-0.0279 20.69545,-3.82303 22.68583,-12.88517 1.91953,-8.73953 -3.79958,-19.24713 -11.3951,-20.93604 -11.91788,-2.65 -13.51986,-3.43812 -13.51986,-6.65134 0,-5.45463 -12.13748,-15.95811 -18.44068,-15.95811 -6.60295,0 -18.44067,10.60196 -18.44067,16.51562 0,2.10784 -4.78447,8.28463 -10.63216,13.72621 -15.78809,14.69162 -19.28353,30.60419 -10.52039,47.89291 5.79704,11.43693 13.81951,16.51614 31.14186,19.71658 7.03469,1.29972 13.76662,2.98062 14.95984,3.73532 2.96435,1.87496 -8.41264,4.15054 -22.30697,4.46178 -23.53424,0.52714 -33.14743,9.92132 -25.838,25.24936 3.31904,6.9601 4.80629,7.88654 16.98979,10.58339 3.77103,0.83473 6.1973,3.14466 7.10602,6.7653 3.44474,13.7249 20.35783,18.9837 29.5373,9.18404 z"
     id="path4525"
     inkscape:connector-curvature="0"
     transform="scale(0.046875)" />
  <use
     id="use4527"
     inkscape:spray-origin="#path4525"
     xlink:href="#path4525"
     x="0"
     y="0"
     width="100%"
     height="100%"
     transform="translate(-3.7664329,-2.1927189)" />
  <use
     id="use4529"
     inkscape:spray-origin="#path4525"
     xlink:href="#path4525"
     x="0"
     y="0"
     width="100%"
     height="100%"
     transform="translate(-4.1459231,-3.3346842)" />
  <use
     id="use4531"
     inkscape:spray-origin="#path4525"
     xlink:href="#path4525"
     x="0"
     y="0"
     width="100%"
     height="100%"
     transform="translate(-1.511538,1.3081542)" />
  <use
     id="use4533"
     inkscape:spray-origin="#path4525"
     xlink:href="#path4525"
     x="0"
     y="0"
     width="100%"
     height="100%"
     transform="translate(-0.54121859,-0.10577111)" />
  <use
     id="use4535"
     inkscape:spray-origin="#path4525"
     xlink:href="#path4525"
     x="0"
     y="0"
     width="100%"
     height="100%"
     transform="translate(-5.2402568,-2.6603885)" />
  <use
     id="use4537"
     inkscape:spray-origin="#path4525"
     xlink:href="#path4525"
     x="0"
     y="0"
     width="100%"
     height="100%"
     transform="translate(0.69445778,-0.59286243)" />
  <use
     id="use4539"
     inkscape:spray-origin="#path4525"
     xlink:href="#path4525"
     x="0"
     y="0"
     width="100%"
     height="100%"
     transform="translate(-1.0497152,-1.8767699)" />
  <use
     id="use4541"
     inkscape:spray-origin="#path4525"
     xlink:href="#path4525"
     x="0"
     y="0"
     width="100%"
     height="100%"
     transform="translate(-4.0307307,-1.7416973)" />
  <use
     id="use4543"
     inkscape:spray-origin="#path4525"
     xlink:href="#path4525"
     x="0"
     y="0"
     width="100%"
     height="100%"
     transform="translate(-2.2689318,-2.8878394)" />
  <use
     id="use4545"
     inkscape:spray-origin="#path4525"
     xlink:href="#path4525"
     x="0"
     y="0"
     width="100%"
     height="100%"
     transform="translate(2.1869476,-1.8813207)" />
  <use
     id="use4547"
     inkscape:spray-origin="#path4525"
     xlink:href="#path4525"
     x="0"
     y="0"
     width="100%"
     height="100%"
     transform="translate(1.0368037,-0.28043817)" />
  <use
     id="use4549"
     inkscape:spray-origin="#path4525"
     xlink:href="#path4525"
     x="0"
     y="0"
     width="100%"
     height="100%"
     transform="translate(1.1754165,-4.4541551)" />
  <use
     id="use4551"
     inkscape:spray-origin="#path4525"
     xlink:href="#path4525"
     x="0"
     y="0"
     width="100%"
     height="100%"
     transform="translate(2.9791185,-0.65104504)" />
  <use
     id="use4553"
     inkscape:spray-origin="#path4525"
     xlink:href="#path4525"
     x="0"
     y="0"
     width="100%"
     height="100%"
     transform="translate(5.2781623,-2.5945549)" />
  <use
     id="use4555"
     inkscape:spray-origin="#path4525"
     xlink:href="#path4525"
     x="0"
     y="0"
     width="100%"
     height="100%"
     transform="translate(0.98887251,-1.1919881)" />
  <use
     id="use4557"
     inkscape:spray-origin="#path4525"
     xlink:href="#path4525"
     x="0"
     y="0"
     width="100%"
     height="100%"
     transform="translate(2.9518484,0.83447801)" />
  <use
     id="use4559"
     inkscape:spray-origin="#path4525"
     xlink:href="#path4525"
     x="0"
     y="0"
     width="100%"
     height="100%"
     transform="translate(0.92559242,2.2919551)" />
  <use
     id="use4561"
     inkscape:spray-origin="#path4525"
     xlink:href="#path4525"
     x="0"
     y="0"
     width="100%"
     height="100%"
     transform="translate(0.65337042,-0.11686015)" />
  <use
     id="use4563"
     inkscape:spray-origin="#path4525"
     xlink:href="#path4525"
     x="0"
     y="0"
     width="100%"
     height="100%"
     transform="translate(5.0229077,0.81746598)" />
  <use
     id="use4565"
     inkscape:spray-origin="#path4525"
     xlink:href="#path4525"
     x="0"
     y="0"
     width="100%"
     height="100%"
     transform="translate(2.3234132,3.8035983)" />
  <use
     id="use4567"
     inkscape:spray-origin="#path4525"
     xlink:href="#path4525"
     x="0"
     y="0"
     width="100%"
     height="100%"
     transform="translate(2.5051572,2.0269739)" />
  <use
     id="use4569"
     inkscape:spray-origin="#path4525"
     xlink:href="#path4525"
     x="0"
     y="0"
     width="100%"
     height="100%"
     transform="translate(6.0056563,1.2193361)" />
  <use
     id="use4571"
     inkscape:spray-origin="#path4525"
     xlink:href="#path4525"
     x="0"
     y="0"
     width="100%"
     height="100%"
     transform="translate(3.0581403,5.5926931)" />
  <use
     id="use4573"
     inkscape:spray-origin="#path4525"
     xlink:href="#path4525"
     x="0"
     y="0"
     width="100%"
     height="100%"
     transform="translate(7.2486453,4.4396965)" />
  <use
     id="use4575"
     inkscape:spray-origin="#path4525"
     xlink:href="#path4525"
     x="0"
     y="0"
     width="100%"
     height="100%"
     transform="translate(4.3050531,0.90553668)" />
  <use
     id="use4577"
     inkscape:spray-origin="#path4525"
     xlink:href="#path4525"
     x="0"
     y="0"
     width="100%"
     height="100%"
     transform="translate(1.9711133,3.9719616)" />
  <use
     id="use4579"
     inkscape:spray-origin="#path4525"
     xlink:href="#path4525"
     x="0"
     y="0"
     width="100%"
     height="100%"
     transform="translate(2.5896585,3.1633957)" />
  <use
     id="use4581"
     inkscape:spray-origin="#path4525"
     xlink:href="#path4525"
     x="0"
     y="0"
     width="100%"
     height="100%"
     transform="translate(2.305471,1.4154924)" />
  <use
     id="use4583"
     inkscape:spray-origin="#path4525"
     xlink:href="#path4525"
     x="0"
     y="0"
     width="100%"
     height="100%"
     transform="translate(2.7059828,3.7583459)" />
  <use
     id="use4585"
     inkscape:spray-origin="#path4525"
     xlink:href="#path4525"
     x="0"
     y="0"
     width="100%"
     height="100%"
     transform="translate(2.0421829,2.8616304)" />
  <use
     id="use4587"
     inkscape:spray-origin="#path4525"
     xlink:href="#path4525"
     x="0"
     y="0"
     width="100%"
     height="100%"
     transform="translate(4.4532995,0.06385046)" />
  <use
     id="use4589"
     inkscape:spray-origin="#path4525"
     xlink:href="#path4525"
     x="0"
     y="0"
     width="100%"
     height="100%"
     transform="translate(2.8454566,6.3610065)" />
  <use
     id="use4591"
     inkscape:spray-origin="#path4525"
     xlink:href="#path4525"
     x="0"
     y="0"
     width="100%"
     height="100%"
     transform="translate(3.7640165,6.7517816)" />
  <use
     id="use4593"
     inkscape:spray-origin="#path4525"
     xlink:href="#path4525"
     x="0"
     y="0"
     width="100%"
     height="100%"
     transform="translate(5.8069146,2.1641092)" />
  <use
     id="use4595"
     inkscape:spray-origin="#path4525"
     xlink:href="#path4525"
     x="0"
     y="0"
     width="100%"
     height="100%"
     transform="translate(0.76711262,5.5493734)" />
  <use
     id="use4597"
     inkscape:spray-origin="#path4525"
     xlink:href="#path4525"
     x="0"
     y="0"
     width="100%"
     height="100%"
     transform="translate(-1.7840567,2.5096951)" />
  <use
     id="use4599"
     inkscape:spray-origin="#path4525"
     xlink:href="#path4525"
     x="0"
     y="0"
     width="100%"
     height="100%"
     transform="translate(-0.40477063,-1.2951482)" />
  <use
     id="use4601"
     inkscape:spray-origin="#path4525"
     xlink:href="#path4525"
     x="0"
     y="0"
     width="100%"
     height="100%"
     transform="translate(-2.0948516,0.07700632)" />
  <use
     id="use4603"
     inkscape:spray-origin="#path4525"
     xlink:href="#path4525"
     x="0"
     y="0"
     width="100%"
     height="100%"
     transform="translate(-4.1124082,-1.8185556)" />
  <use
     id="use4605"
     inkscape:spray-origin="#path4525"
     xlink:href="#path4525"
     x="0"
     y="0"
     width="100%"
     height="100%"
     transform="translate(-4.6317041,-4.4117188)" />
  <use
     id="use4607"
     inkscape:spray-origin="#path4525"
     xlink:href="#path4525"
     x="0"
     y="0"
     width="100%"
     height="100%"
     transform="translate(-4.8073237,-5.8721098)" />
  <use
     id="use4609"
     inkscape:spray-origin="#path4525"
     xlink:href="#path4525"
     x="0"
     y="0"
     width="100%"
     height="100%"
     transform="translate(-1.1538123,-6.0155378)" />
  <use
     id="use4611"
     inkscape:spray-origin="#path4525"
     xlink:href="#path4525"
     x="0"
     y="0"
     width="100%"
     height="100%"
     transform="translate(-3.5473236,-2.5337387)" />
  <use
     id="use4613"
     inkscape:spray-origin="#path4525"
     xlink:href="#path4525"
     x="0"
     y="0"
     width="100%"
     height="100%"
     transform="translate(-1.1581651,-5.3499327)" />
  <use
     id="use4615"
     inkscape:spray-origin="#path4525"
     xlink:href="#path4525"
     x="0"
     y="0"
     width="100%"
     height="100%"
     transform="translate(-4.915722,-4.6966824)" />
  <use
     id="use4617"
     inkscape:spray-origin="#path4525"
     xlink:href="#path4525"
     x="0"
     y="0"
     width="100%"
     height="100%"
     transform="translate(-2.5481777,-6.2745242)" />
  <use
     id="use4619"
     inkscape:spray-origin="#path4525"
     xlink:href="#path4525"
     x="0"
     y="0"
     width="100%"
     height="100%"
     transform="translate(2.1276986,-8.3911677)" />
  <use
     id="use4621"
     inkscape:spray-origin="#path4525"
     xlink:href="#path4525"
     x="0"
     y="0"
     width="100%"
     height="100%"
     transform="translate(2.6403356,-10.027344)" />
  <use
     id="use4623"
     inkscape:spray-origin="#path4525"
     xlink:href="#path4525"
     x="0"
     y="0"
     width="100%"
     height="100%"
     transform="translate(3.0030708,-11.48696)" />
  <use
     id="use4625"
     inkscape:spray-origin="#path4525"
     xlink:href="#path4525"
     x="0"
     y="0"
     width="100%"
     height="100%"
     transform="translate(0.52670845,-8.4916789)" />
  <use
     id="use4627"
     inkscape:spray-origin="#path4525"
     xlink:href="#path4525"
     x="0"
     y="0"
     width="100%"
     height="100%"
     transform="translate(4.7407572,-9.9226525)" />
  <use
     id="use4629"
     inkscape:spray-origin="#path4525"
     xlink:href="#path4525"
     x="0"
     y="0"
     width="100%"
     height="100%"
     transform="translate(3.7375591,-8.6132611)" />
  <use
     id="use4631"
     inkscape:spray-origin="#path4525"
     xlink:href="#path4525"
     x="0"
     y="0"
     width="100%"
     height="100%"
     transform="translate(1.1184248,-9.6832793)" />
  <use
     id="use4633"
     inkscape:spray-origin="#path4525"
     xlink:href="#path4525"
     x="0"
     y="0"
     width="100%"
     height="100%"
     transform="translate(4.0824201,-7.4325945)" />
  <use
     id="use4635"
     inkscape:spray-origin="#path4525"
     xlink:href="#path4525"
     x="0"
     y="0"
     width="100%"
     height="100%"
     transform="translate(3.2536602,-9.7607323)" />
  <use
     id="use4637"
     inkscape:spray-origin="#path4525"
     xlink:href="#path4525"
     x="0"
     y="0"
     width="100%"
     height="100%"
     transform="translate(5.6987517,-8.5503627)" />
  <use
     id="use4639"
     inkscape:spray-origin="#path4525"
     xlink:href="#path4525"
     x="0"
     y="0"
     width="100%"
     height="100%"
     transform="translate(4.6959764,-5.8128616)" />
  <use
     id="use4641"
     inkscape:spray-origin="#path4525"
     xlink:href="#path4525"
     x="0"
     y="0"
     width="100%"
     height="100%"
     transform="translate(2.6361733,-4.048668)" />
  <use
     id="use4643"
     inkscape:spray-origin="#path4525"
     xlink:href="#path4525"
     x="0"
     y="0"
     width="100%"
     height="100%"
     transform="translate(6.491638,-7.0849685)" />
  <use
     id="use4645"
     inkscape:spray-origin="#path4525"
     xlink:href="#path4525"
     x="0"
     y="0"
     width="100%"
     height="100%"
     transform="translate(3.2992002,-8.3610411)" />
  <use
     id="use4647"
     inkscape:spray-origin="#path4525"
     xlink:href="#path4525"
     x="0"
     y="0"
     width="100%"
     height="100%"
     transform="translate(2.3793081,-4.4091407)" />
  <use
     id="use4649"
     inkscape:spray-origin="#path4525"
     xlink:href="#path4525"
     x="0"
     y="0"
     width="100%"
     height="100%"
     transform="translate(2.2172744,-6.8186266)" />
  <use
     id="use4651"
     inkscape:spray-origin="#path4525"
     xlink:href="#path4525"
     x="0"
     y="0"
     width="100%"
     height="100%"
     transform="translate(3.1101351,-6.7071034)" />
  <use
     id="use4653"
     inkscape:spray-origin="#path4525"
     xlink:href="#path4525"
     x="0"
     y="0"
     width="100%"
     height="100%"
     transform="translate(3.4027062,-2.2219244)" />
  <use
     id="use4655"
     inkscape:spray-origin="#path4525"
     xlink:href="#path4525"
     x="0"
     y="0"
     width="100%"
     height="100%"
     transform="translate(3.1878183,-3.5741658)" />
  <use
     id="use4657"
     inkscape:spray-origin="#path4525"
     xlink:href="#path4525"
     x="0"
     y="0"
     width="100%"
     height="100%"
     transform="translate(2.2320018,-4.1779574)" />
  <use
     id="use4659"
     inkscape:spray-origin="#path4525"
     xlink:href="#path4525"
     x="0"
     y="0"
     width="100%"
     height="100%"
     transform="translate(1.1746343,-2.4828713)" />
  <use
     id="use4661"
     inkscape:spray-origin="#path4525"
     xlink:href="#path4525"
     x="0"
     y="0"
     width="100%"
     height="100%"
     transform="translate(2.7943086,-2.1947636)" />
</svg>
