<?xml version="1.0" encoding="UTF-8" standalone="no"?>
<!-- Generator: Adobe Illustrator 19.0.0, SVG Export Plug-In . SVG Version: 6.00 Build 0)  -->

<svg
   xmlns:dc="http://purl.org/dc/elements/1.1/"
   xmlns:cc="http://creativecommons.org/ns#"
   xmlns:rdf="http://www.w3.org/1999/02/22-rdf-syntax-ns#"
   xmlns:svg="http://www.w3.org/2000/svg"
   xmlns="http://www.w3.org/2000/svg"
   xmlns:sodipodi="http://sodipodi.sourceforge.net/DTD/sodipodi-0.dtd"
   xmlns:inkscape="http://www.inkscape.org/namespaces/inkscape"
   version="1.1"
   id="Capa_1"
   x="0px"
   y="0px"
   viewBox="0 0 511.997 511.997"
   style="enable-background:new 0 0 511.997 511.997;"
   xml:space="preserve"
   sodipodi:docname="chess.svg"
   inkscape:version="0.92.4 (5da689c313, 2019-01-14)"><metadata
   id="metadata49"><rdf:RDF><cc:Work
       rdf:about=""><dc:format>image/svg+xml</dc:format><dc:type
         rdf:resource="http://purl.org/dc/dcmitype/StillImage" /></cc:Work></rdf:RDF></metadata><defs
   id="defs47" /><sodipodi:namedview
   pagecolor="#ffffff"
   bordercolor="#666666"
   borderopacity="1"
   objecttolerance="10"
   gridtolerance="10"
   guidetolerance="10"
   inkscape:pageopacity="0"
   inkscape:pageshadow="2"
   inkscape:window-width="1366"
   inkscape:window-height="745"
   id="namedview45"
   showgrid="false"
   inkscape:zoom="0.46094019"
   inkscape:cx="-96.541809"
   inkscape:cy="342.77766"
   inkscape:window-x="-8"
   inkscape:window-y="-8"
   inkscape:window-maximized="1"
   inkscape:current-layer="Capa_1" />
<g
   id="g6"
   style="fill:#009688;stroke:#008080;fill-opacity:1"
   transform="translate(-815.72405,30.372704)">
	<g
   id="g4"
   style="fill:#009688;stroke:#008080;fill-opacity:1"
   transform="translate(830.9104,-26.033746)">
		<path
   d="M 439.208,162.493 C 396.552,128.989 354.536,95.517 312.04,62.013 293.608,47.837 284.648,29.821 288.392,6.525 c 0.64,-5.792 -2.592,-7.744 -8.96,-5.792 -14.656,4.48 -26.752,12.896 -33.76,26.432 -9.6,19.328 -24.8,26.432 -44,25.792 -28.704,-1.312 -46.496,14.208 -61.792,36.16 -16.64,23.296 -24.8,50.368 -31.168,77.472 -7.008,29.056 -10.272,58.144 -11.424,87.712 -1.312,22.624 -0.64,44.576 -1.312,67.072 0,1.312 0,1.984 0,2.624 v 60 h 281.632 v -45.248 c 0,0 2.272,-19.04 -11.808,-32.992 -14.08,-13.952 -29.024,-27.008 -29.024,-27.008 -7.2,-5.888 -13.76,-12.608 -19.424,-19.936 l -51.936,-67.2 c 3.232,2.624 6.368,5.12 9.6,7.744 15.968,12.224 33.12,17.376 52.832,12.224 11.424,-2.624 22.976,-1.312 33.12,5.12 5.664,3.776 11.936,7.04 18.24,10.304 14.816,7.68 33.056,4.16 43.712,-8.64 6.56,-7.872 13.12,-15.744 19.68,-23.488 8.352,-9.888 6.816,-24.384 -3.392,-32.384 z"
   id="path2"
   style="fill:#009688;stroke:#008080;fill-opacity:1"
   inkscape:connector-curvature="0" />
	</g>
</g>
<g
   id="g12"
   style="fill:#009688;fill-opacity:1">
	<g
   id="g10"
   style="fill:#009688;fill-opacity:1">
		<path
   d="m 427.32883,475.84413 -32,-64.032 c -2.72,-5.408 -8.256,-8.832 -14.304,-8.832 h -256 c -6.048,0 -11.58395,3.424 -14.30395,8.832 l -32.000002,64 c -2.496,4.96 -2.208,10.848 0.704,15.552 2.912,4.704 8.064,7.616 13.6,7.616 H 413.02483 c 5.536,0 10.688,-2.88 13.632,-7.584 2.912,-4.704 3.168,-10.592 0.672,-15.552 z"
   id="path8"
   inkscape:connector-curvature="0"
   style="fill:#009688;fill-opacity:1" />
	</g>
</g>
<g
   id="g14">
</g>
<g
   id="g16">
</g>
<g
   id="g18">
</g>
<g
   id="g20">
</g>
<g
   id="g22">
</g>
<g
   id="g24">
</g>
<g
   id="g26">
</g>
<g
   id="g28">
</g>
<g
   id="g30">
</g>
<g
   id="g32">
</g>
<g
   id="g34">
</g>
<g
   id="g36">
</g>
<g
   id="g38">
</g>
<g
   id="g40">
</g>
<g
   id="g42">
</g>
</svg>