<?xml version="1.0"?>
<svg xmlns="http://www.w3.org/2000/svg" xmlns:xlink="http://www.w3.org/1999/xlink" xmlns:svgjs="http://svgjs.com/svgjs" version="1.1" width="512" height="512" x="0" y="0" viewBox="0 0 74 74" style="enable-background:new 0 0 512 512" xml:space="preserve" class=""><g transform="matrix(0.98,0,0,0.98,0.7399999999999807,0.7397656249999827)"><path xmlns="http://www.w3.org/2000/svg" d="m38.669 64.676a.948.948 0 0 1 -.58-.183 124.654 124.654 0 0 1 -11.336-10.035 1 1 0 0 1 -.014-1.4c5.449-5.67 8.431-10.8 8.622-14.845a8.379 8.379 0 0 0 -2.377-6.213 9.431 9.431 0 0 0 -6.794-2.9 9.211 9.211 0 0 0 -5.871 2.129 1 1 0 0 1 -1.28 0 9.155 9.155 0 0 0 -5.86-2.128 9.015 9.015 0 0 0 -1.474.116 1 1 0 0 1 -1.156-.851c-.065-.47-.107-.94-.129-1.4a16.315 16.315 0 0 1 4.608-12.1 18.077 18.077 0 0 1 13.022-5.566 17.667 17.667 0 0 1 10.65 3.581 17.62 17.62 0 0 1 10.64-3.581c8.4 0 15.868 5.982 17.364 13.915a1 1 0 0 1 -1.272 1.143 5.8 5.8 0 0 0 -1.682-.237 6.206 6.206 0 0 0 -3.986 1.445 1 1 0 0 1 -1.284 0 6.257 6.257 0 0 0 -4-1.448 6.429 6.429 0 0 0 -4.633 1.982 5.682 5.682 0 0 0 -1.608 4.215c.243 5.27 7.079 11.59 10.007 14.063a1 1 0 0 1 .145 1.377 117.114 117.114 0 0 1 -19.011 18.683 1.179 1.179 0 0 1 -.711.238zm-9.811-10.947a125.2 125.2 0 0 0 9.841 8.7 115.938 115.938 0 0 0 17.523-17.154c-3.924-3.423-9.728-9.383-9.981-14.869a7.667 7.667 0 0 1 2.159-5.688 8.437 8.437 0 0 1 6.081-2.6 8.266 8.266 0 0 1 4.639 1.428 8.312 8.312 0 0 1 5.266-1.4 15.768 15.768 0 0 0 -15.046-10.846 15.6 15.6 0 0 0 -10 3.627 1 1 0 0 1 -1.282 0 15.665 15.665 0 0 0 -10.008-3.627 16.066 16.066 0 0 0 -11.575 4.947 14.327 14.327 0 0 0 -4.057 10.627c0 .083.009.167.014.25.246-.016.495-.023.747-.023a11.155 11.155 0 0 1 6.5 2.1 11.2 11.2 0 0 1 6.509-2.1 11.44 11.44 0 0 1 8.241 3.521 10.361 10.361 0 0 1 2.928 7.686c-.207 4.417-3.066 9.602-8.499 15.421z" fill="#ff5050" data-original="#000000" style=""/><path xmlns="http://www.w3.org/2000/svg" d="m19.663 61.734a.967.967 0 0 1 -.623-.215c-2.772-2.145-16.555-13.299-17.03-23.211a10.868 10.868 0 0 1 9.372-11.065 10.887 10.887 0 0 1 1.8-.143 11.155 11.155 0 0 1 6.5 2.1 11.2 11.2 0 0 1 6.509-2.1 11.44 11.44 0 0 1 8.241 3.521 10.361 10.361 0 0 1 2.928 7.686c-.217 4.6-3.3 10.025-9.178 16.135a77.8 77.8 0 0 1 -7.848 7.066 1.1 1.1 0 0 1 -.671.226zm-6.484-32.634a9.015 9.015 0 0 0 -1.474.116 8.874 8.874 0 0 0 -7.7 9c.409 8.528 12.561 18.776 15.672 21.265a76.979 76.979 0 0 0 7.061-6.422c5.447-5.668 8.429-10.8 8.62-14.843a8.383 8.383 0 0 0 -2.374-6.216 9.431 9.431 0 0 0 -6.794-2.9 9.211 9.211 0 0 0 -5.871 2.129 1 1 0 0 1 -1.28 0 9.155 9.155 0 0 0 -5.86-2.129z" fill="#ff5050" data-original="#000000" style=""/><path xmlns="http://www.w3.org/2000/svg" d="m59.118 47.386a1 1 0 0 1 -.7-.3c-.213-.159-.737-.573-1.459-1.183-3.886-3.281-10.445-9.659-10.714-15.5a7.667 7.667 0 0 1 2.155-5.685 8.437 8.437 0 0 1 6.081-2.6 8.266 8.266 0 0 1 4.639 1.428 8.211 8.211 0 0 1 4.63-1.426 7.813 7.813 0 0 1 2.259.322 8.015 8.015 0 0 1 5.981 7.966c-.322 6.861-9.39 14.51-12.167 16.692a.985.985 0 0 1 -.705.286zm-4.638-23.266a6.429 6.429 0 0 0 -4.633 1.98 5.682 5.682 0 0 0 -1.608 4.215c.243 5.27 7.079 11.59 10.007 14.063.342.29.638.533.874.725 2.656-2.159 10.606-9.08 10.872-14.788a6.014 6.014 0 0 0 -4.534-5.948 6.265 6.265 0 0 0 -5.694 1.2 1 1 0 0 1 -1.284 0 6.257 6.257 0 0 0 -4-1.447z" fill="#ff5050" data-original="#000000" style=""/></g></svg>
