<svg xmlns="http://www.w3.org/2000/svg" width="323" height="418" fill="none" viewBox="0 0 323 418"><path fill="#B28B67" fill-rule="evenodd" d="M114.353 88.9721C108.83 94.1363 102.998 97.3038 99.917 97.1717C92.19 96.8406 85.8201 70.1845 89.2426 58.4146C92.6651 46.6447 120.826 35.846 126.744 56.4666C128.798 63.6234 127.125 70.7555 123.743 77.0041L139.831 112.955L116.355 117.944L114.353 88.9721Z" clip-rule="evenodd"/><path fill="#191847" fill-rule="evenodd" d="M126.548 81.3328C126.708 67.5983 133.203 56.8787 130.675 51.2923C128.148 45.706 122.293 45.4581 122.293 45.4581C122.293 45.4581 116.953 34.4529 101.672 39.5137C86.3915 44.5745 78.2215 53.1038 85.386 66.5277C89.1777 65.7217 93.4635 63.3775 100.292 64.3815C103.543 64.8594 106.076 70.4007 106.076 70.4007L108.936 69.7928C108.936 69.7928 111.633 62.0045 116.069 62.9739C120.506 63.9433 119.799 71.4715 119.799 71.4715L123.505 81.9796L126.548 81.3328Z" clip-rule="evenodd"/><path fill="#997659" fill-rule="evenodd" d="M192 179L117.694 303.227L61.9852 408.25H49.9861L143.326 179L192 179Z" clip-rule="evenodd"/><path fill="#E4E4E4" fill-rule="evenodd" d="M66.5504 402.284C67.6221 401.813 68.8957 402.29 69.2949 403.391C70.023 405.398 71 408.409 71 410.106C71 412.811 70.0988 418 70.0988 418C66.9608 418 13.6969 418 13.6969 418C13.6969 418 11.4984 410.732 16.2352 410.152C20.9719 409.573 24.105 409.106 24.105 409.106L50.32 397.419C50.8346 397.189 51.437 397.43 51.6517 397.951L53.3368 402.039C53.3368 402.039 57.7218 404.085 60.4633 404.085C62.1323 404.085 64.7543 403.074 66.5504 402.284Z" clip-rule="evenodd"/><path fill="#DB2721" fill-rule="evenodd" d="M77.4569 391.433L54.3169 384.433C54.3169 384.433 69.5243 338.971 91.5946 284.374C113.665 229.778 139 179 139 179H204.356C204.356 179 176.189 243.232 144.634 295.725C113.079 348.219 77.4569 391.433 77.4569 391.433Z" clip-rule="evenodd"/><path fill="#B28B67" fill-rule="evenodd" d="M196.883 179C203.896 222.654 217.423 278.427 218.699 280.149C219.55 281.296 250.187 291.562 310.61 310.947L308.018 321.528C235.964 311.132 197.998 303.066 194.119 297.331C188.301 288.728 159.251 220.763 148 179H196.883Z" clip-rule="evenodd"/><path fill="#FF4133" fill-rule="evenodd" d="M289.37 301.8L284.805 318.842C230.913 323.569 197.892 320.153 185.742 308.596C173.593 297.039 159.745 253.84 144.201 179H206.522C216.37 240.284 221.876 272.212 223.04 274.785C224.203 277.357 246.313 286.363 289.37 301.8Z" clip-rule="evenodd"/><path fill="#E4E4E4" fill-rule="evenodd" d="M306.069 309.074C305.791 307.937 306.482 306.765 307.635 306.563C309.739 306.195 312.873 305.756 314.544 306.05C317.208 306.52 322.162 308.309 322.162 308.309C321.617 311.399 312.368 363.854 312.368 363.854C312.368 363.854 304.829 364.757 305.08 359.991C305.332 355.226 305.416 352.059 305.416 352.059L298.459 324.213C298.323 323.667 298.664 323.115 299.215 322.994L303.533 322.044C303.533 322.044 306.309 318.081 306.785 315.381C307.075 313.738 306.535 310.98 306.069 309.074Z" clip-rule="evenodd"/><path fill="#997659" fill-rule="evenodd" d="M44.364 185.901L83.1544 176.78L82.8803 195.832L48.4195 195.456C36.016 201.676 29.6647 203.763 29.3656 201.716C29.1135 199.99 30.2996 198.984 31.3922 198.058C32.2433 197.336 33.0376 196.663 33.051 195.735C33.0815 193.615 27.4287 191.414 21.9768 189.557C16.5249 187.699 19.0542 186.001 20.8165 185.383C27.5669 184.457 35.416 184.63 44.364 185.901ZM258.446 207.605C253.58 203.105 202.222 140.863 202.222 140.863L181.808 148.787C181.808 148.787 244.479 211.547 247.289 214.563C250.939 218.482 250.347 226.438 249.946 231.833C249.884 232.667 249.826 233.441 249.79 234.128C253.293 234.318 254.109 232.15 254.968 229.864C255.939 227.282 256.967 224.549 261.988 224.896C263.928 225.03 265.833 225.337 267.694 225.638C274.123 226.675 280.029 227.628 285.041 221.054C285.836 220.012 286.048 217.154 282.566 216.322C273.888 214.249 260.825 209.805 258.446 207.605Z" clip-rule="evenodd"/><path fill="#AFB9C5" fill-rule="evenodd" d="M121.337 97.5209L105.74 104.731C115.489 141.908 102.664 172.678 51.662 183.505L62.9049 231.884C110.067 220.443 142.568 187.327 131.947 135.521C129.198 122.11 125.812 108.355 121.337 97.5209Z" clip-rule="evenodd"/><path fill="#C5CFD6" fill-rule="evenodd" d="M252.091 199.432C218.281 144.568 177.265 107.827 129.043 89.2071L127.507 89.7967L127.455 89.8168L127.448 89.8365L105.329 104.7C116.511 133.831 118.386 158.086 120.188 181.405C120.966 191.475 121.731 201.37 123.226 211.408L188.722 186.267C193.713 196.509 198.46 207.184 203.05 218.257L252.091 199.432Z" clip-rule="evenodd"/><path fill="#000" fill-opacity=".1" fill-rule="evenodd" d="M188.722 186.267C178.562 165.413 167.396 146.348 154.507 129.346C163.576 149.338 173.655 174.588 175.411 191.377L188.722 186.267Z" clip-rule="evenodd"/></svg>