<svg xmlns="http://www.w3.org/2000/svg" width="300" height="426" fill="none" viewBox="0 0 300 426"><path fill="#191847" fill-rule="evenodd" d="M143 77.7069C154.429 77.7069 158.586 64.0241 165.079 56.5153C169.724 51.143 177.653 52.7449 180 45.2238C185.902 26.3111 170.106 13 149.5 13C128.894 13 115 24.6743 112 42.2238C109 59.7733 122.394 77.7069 143 77.7069Z" clip-rule="evenodd"/><path fill="#B28B67" fill-rule="evenodd" d="M155.935 75.2443C162.411 79.1475 168.774 81.0333 171.76 80.2635C179.25 78.333 179.938 50.9351 174.143 40.1339C168.349 29.3328 138.558 24.625 137.057 46.0255C136.536 53.4529 139.654 60.0814 144.262 65.4901L136 104H160L155.935 75.2443Z" clip-rule="evenodd"/><path fill="#191847" fill-rule="evenodd" d="M138.617 31C120.234 49 138.687 68.1318 143.743 68.1318C144.07 65.5347 145.065 63.0084 146.524 60.6039C145.749 59.6005 145.29 58.3525 145.29 57C145.29 53.6863 148.046 51 151.447 51C152.509 51 153.508 51.262 154.38 51.7234C161.75 45.4379 170.993 41.0561 175.583 40.1945C183.566 38.696 157 13 138.617 31Z" clip-rule="evenodd"/><path fill="#997659" fill-rule="evenodd" d="M128 187L165.631 310.024L183.86 414.648H198.153L178.891 187H128Z" clip-rule="evenodd"/><path fill="#B28B67" fill-rule="evenodd" d="M114.538 187C117.094 254.547 114.086 289.389 113.514 295.526C112.942 301.663 105.108 341.455 86.5637 416.708L101.794 411.478C131.102 342.459 141.089 306.589 144.45 297.526C147.812 288.463 156.739 251.621 171.233 187H114.538Z" clip-rule="evenodd"/><path fill="#E4E4E4" fill-rule="evenodd" d="M89.4496 410.284C88.3779 409.813 87.1043 410.29 86.7051 411.391C85.977 413.398 85 416.409 85 418.106C85 420.811 85.9012 426 85.9012 426C89.0392 426 142.303 426 142.303 426C142.303 426 144.502 418.732 139.765 418.152C135.028 417.573 131.895 417.106 131.895 417.106L105.68 405.419C105.165 405.189 104.563 405.43 104.348 405.951L102.663 410.039C102.663 410.039 98.2782 412.085 95.5367 412.085C93.8677 412.085 91.2457 411.074 89.4496 410.284Z" clip-rule="evenodd"/><path fill="#E4E4E4" fill-rule="evenodd" d="M183.45 410.284C182.378 409.813 181.104 410.29 180.705 411.391C179.977 413.398 179 416.409 179 418.106C179 420.811 179.901 426 179.901 426C183.039 426 236.303 426 236.303 426C236.303 426 238.502 418.732 233.765 418.152C229.028 417.573 225.895 417.106 225.895 417.106L199.68 405.419C199.165 405.189 198.563 405.43 198.348 405.951L196.663 410.039C196.663 410.039 192.278 412.085 189.537 412.085C187.868 412.085 185.246 411.074 183.45 410.284Z" clip-rule="evenodd"/><path fill="#69A1AC" fill-rule="evenodd" d="M123 187L139 249.68H187.87L180.584 187H123Z" clip-rule="evenodd"/><path fill="#89C5CC" fill-rule="evenodd" d="M114 187C106.103 210.671 111 249.68 111 249.68H160.87L174.584 187H114Z" clip-rule="evenodd"/><path fill="#B28B67" fill-rule="evenodd" d="M244.372 198.758L216.044 171.122L206.636 187.402L236.093 204.77C243.479 216.405 247.817 221.432 249.107 219.852C250.195 218.519 249.696 217.058 249.237 215.713C248.879 214.665 248.546 213.687 249.004 212.894C250.051 211.082 255.965 212.119 261.535 213.344C267.106 214.568 265.817 211.832 264.633 210.404C259.368 206.155 252.615 202.273 244.372 198.758ZM77.398 238.908C80.3285 232.963 90.308 175.02 90.308 175.02L111.205 175.102C111.205 175.102 91.8506 237.583 90.308 241.406C88.3041 246.372 91.708 253.587 94.0162 258.48C94.3733 259.237 94.7041 259.938 94.9847 260.567C91.782 262 90.2435 260.268 88.6216 258.442C86.7896 256.379 84.8512 254.197 80.288 256.319C78.525 257.14 76.8568 258.109 75.2269 259.057C69.5969 262.329 64.4249 265.336 57.3891 260.994C56.2737 260.306 55.0514 257.715 58.0047 255.69C65.3624 250.645 75.9654 241.815 77.398 238.908Z" clip-rule="evenodd"/><path fill="#191847" fill-rule="evenodd" d="M149.695 87.3321L158.342 85.8489C173.23 123.039 199.222 156.831 236.318 187.225L208.286 221.281C171.194 178.005 148.33 133.355 149.695 87.3321Z" clip-rule="evenodd"/><path fill="#DDE3E9" fill-rule="evenodd" d="M112 196H189C189 196 162.241 130.938 162.241 85.4607L139.014 82C120.76 111.358 115.605 147.505 112 196Z" clip-rule="evenodd"/><path fill="#2F3676" fill-rule="evenodd" d="M77 229C85.4209 133.996 138.504 82 138.504 82L138.522 82.0164C138.525 82.0109 138.529 82.0055 138.532 82H140.048C142.769 82.0937 148.338 82.3377 148.338 82.3377L153.95 98.3769C154.841 127.71 164.351 216.606 164.351 216.606H113.95C114.036 220.682 114.225 224.815 114.531 229H77Z" clip-rule="evenodd"/><path fill="#000" fill-opacity=".1" fill-rule="evenodd" d="M113.958 217C113.556 199.25 115.131 182.584 117.758 167.502C119.132 185.399 122.003 206.933 128 217H113.958Z" clip-rule="evenodd"/><path fill="#fff" fill-opacity=".2" fill-rule="evenodd" d="M125.111 186L150 174.429V186H125.111Z" clip-rule="evenodd"/></svg>